# xmcd CD database file
#
# Track frame offsets:
#	150
#	15223
#	31037
#	41755
#	58763
#	70742
#	88379
#	98439
#	117032
#	132163
#
# Disc length: 2080 seconds
#
# Revision: 1
# Processed by: cddbd v1.5.1PL0 Copyright (c) Steve Scherf et al.
# Submitted via: CDex 1.51
#
DISCID=74081e0a
DTITLE=Kades Singers - Muita Vida
DYEAR=2000
DGENRE=Gospel
TTITLE0=Deves Lutar
TTITLE1=Outro não Há
TTITLE2=O amor que pode tudo mudar
TTITLE3=Muita Vida
TTITLE4=Dai Graças
TTITLE5=Tudo é Paz
TTITLE6=Glória a Deus nas Alturas
TTITLE7=Rocha Eterna
TTITLE8=Caminhar
TTITLE9=Ele é fiel
EXTD=Kades Singers YEAR: 2000
EXTT0=
EXTT1=
EXTT2=
EXTT3=
EXTT4=
EXTT5=
EXTT6=
EXTT7=
EXTT8=
EXTT9=
PLAYORDER=
